<svg height="511pt" viewBox="-46 0 511 511.99966" width="511pt" xmlns="http://www.w3.org/2000/svg"><path d="m402.394531 13.914062c-5.109375-3.78125-11.710937-4.910156-17.757812-3.03125l-240.003907 79.992188c-8.402343 2.578125-14.121093 10.328125-14.121093 19.121094v252.011718c-30.582031-.269531-40.230469 34.96875-40.230469 34.96875s-9.78125-35.75-40.890625-34.96875c-20.300781.519532-36.421875 17.851563-38.582031 38.28125-3.820313 36.070313 29.613281 57.878907 79.582031 101.710938 36.492187-33.371094 79.652344-59.53125 79.652344-96.582031h.46875v-236.503907l200.003906-66.660156v199.753906c-30.582031-.269531-40.230469 34.96875-40.230469 34.96875s-9.78125-35.75-40.890625-34.96875c-20.300781.519532-36.421875 17.847657-38.582031 38.28125-3.820312 36.070313 29.609375 57.878907 79.582031 101.710938 36.492188-33.371094 79.652344-59.53125 79.652344-96.582031h.46875v-315.425781c0-6.347657-3.011719-12.308594-8.121094-16.078126zm0 0" fill="#ff9ac9"/><path d="m350.515625 49.992188c-5.519531 0-10 4.480468-10 10 0 5.519531 4.480469 10 10 10s10-4.480469 10-10c0-5.519532-4.480469-10-10-10zm0 0"/><path d="m419.949219 348.707031c.363281-1.03125.566406-2.136719.566406-3.289062v-315.425781c0-9.476563-4.554687-18.496094-12.171875-24.117188-7.648438-5.660156-17.617188-7.355469-26.675781-4.542969-.066407.023438-.132813.042969-.195313.0625l-239.902344 79.957031c-12.601562 3.929688-21.058593 15.421876-21.058593 28.644532v242.984375c-14.367188 2.964843-24.03125 12.246093-30.25 21.296875-8.179688-11.617188-21.230469-22.28125-39.890625-22.28125-.40625 0-.824219.003906-1.238282.015625-24.738281.632812-45.488281 20.9375-48.269531 47.222656-4.464843 42.183594 32.582031 66.121094 82.933594 110.285156 1.886719 1.652344 4.242187 2.480469 6.59375 2.480469 2.421875 0 4.839844-.875 6.75-2.621094 36.398437-33.285156 80.527344-60.0625 82.808594-100.671875.359375-1.03125.5625-2.136719.5625-3.289062v-229.296875l180.003906-59.992188v176.839844c-14.359375 2.949219-24.03125 12.257812-30.25 21.308594-8.179687-11.617188-21.230469-22.28125-39.890625-22.28125-.40625 0-.824219.003906-1.238281.015625-24.738281.632812-45.488281 20.9375-48.269531 47.222656-4.464844 42.183594 32.582031 66.121094 82.933593 110.285156 1.886719 1.652344 4.242188 2.480469 6.59375 2.480469 2.421875 0 4.839844-.875 6.746094-2.621094 36.402344-33.285156 80.53125-60.066406 82.808594-100.671875zm-329.648438 139.953125c-45.804687-39.648437-72.550781-58.9375-69.546875-87.320312 1.699219-16.078125 14.390625-28.964844 28.886719-29.335938.238281-.003906.472656-.007812.707031-.007812 22.234375 0 29.976563 26.519531 30.289063 27.621094 1.183593 4.332031 5.117187 7.324218 9.605469 7.34375h.042968c4.476563 0 8.410156-2.996094 9.628906-7.304688.320313-1.136719 8.117188-27.820312 30.597657-27.648438h.222656c14.878906.285157 29.308594 13.855469 29.308594 33.410157 0 29.648437-35.671875 53.316406-69.742188 83.242187zm77.050781-329.234375c-4.085937 1.363281-6.839843 5.183594-6.839843 9.488281v194.113282c-5.835938-4.761719-12.660157-8.179688-20-9.855469v-243.175781c0-4.425782 2.835937-8.265625 7.054687-9.5625.078125-.023438.152344-.046875.226563-.074219l239.890625-79.953125c2.96875-.894531 6.242187-.320312 8.773437 1.554688 2.542969 1.871093 4.058594 4.875 4.058594 8.03125v273.035156c-5.835937-4.761719-12.660156-8.179688-20-9.855469v-190.917969c0-3.214844-1.542969-6.234375-4.152344-8.113281-2.605469-1.878906-5.960937-2.390625-9.007812-1.375zm162.953126 269.234375c-45.808594-39.648437-72.550782-58.9375-69.546876-87.320312 1.699219-16.078125 14.390626-28.964844 28.886719-29.335938.238281-.007812.472657-.007812.707031-.007812 22.234376 0 29.976563 26.515625 30.285157 27.621094 1.1875 4.332031 5.121093 7.320312 9.609375 7.339843h.042968c4.472657 0 8.410157-2.992187 9.628907-7.300781.320312-1.132812 8.066406-27.648438 30.347656-27.648438h.25.222656c14.878907.285157 29.308594 13.851563 29.308594 33.410157 0 29.648437-35.671875 53.316406-69.742187 83.242187zm0 0"/><path d="m310.75 66.742188-123.445312 41.78125c-5.230469 1.769531-8.035157 7.445312-6.265626 12.675781 1.410157 4.171875 5.300782 6.796875 9.472657 6.796875 1.0625 0 2.144531-.167969 3.207031-.53125l123.441406-41.777344c5.230469-1.773438 8.039063-7.449219 6.265625-12.679688-1.765625-5.230468-7.441406-8.042968-12.675781-6.265624zm0 0"/></svg>