<?xml version="1.0" encoding="UTF-8" standalone="no"?>
<svg
   xmlns:dc="http://purl.org/dc/elements/1.1/"
   xmlns:cc="http://creativecommons.org/ns#"
   xmlns:rdf="http://www.w3.org/1999/02/22-rdf-syntax-ns#"
   xmlns:svg="http://www.w3.org/2000/svg"
   xmlns="http://www.w3.org/2000/svg"
   viewBox="0 -28 512.00001 512"
   version="1.1"
   id="svg134">
  <metadata
     id="metadata140">
    <rdf:RDF>
      <cc:Work
         rdf:about="">
        <dc:format>image/svg+xml</dc:format>
        <dc:type
           rdf:resource="http://purl.org/dc/dcmitype/StillImage" />
        <dc:title></dc:title>
      </cc:Work>
    </rdf:RDF>
  </metadata>
  <defs
     id="defs138" />
  <g
     id="layer1">
    <rect
       style=""
       y="-530.50995"
       x="-150.4474"
       height="1200"
       width="1200"
       id="rect145" />
    <path
       transform="translate(0,-28)"
       id="path185"
       d="M -149.83832,97.588544 V -502.03801 H 449.78823 1049.4148 V 97.588544 697.21509 H 449.78823 -149.83832 Z M 637.46311,613.93839 C 755.92056,591.49536 841.15853,503.4614 862.86934,381.13836 c 3.76806,-21.22997 5.23038,-65.99174 2.82432,-86.45248 -8.07699,-68.68547 -38.12475,-128.77708 -88.67963,-177.34772 -6.9098,-6.6386 -14.71353,-13.82594 -17.34162,-15.97187 l -4.77836,-3.901688 6.19257,-5.198635 c 59.45405,-49.911443 96.00833,-117.220273 104.5738,-192.555907 2.39873,-21.09754 1.00178,-64.21762 -2.77548,-85.67134 -20.7327,-117.75548 -102.15035,-205.44893 -213.8578,-230.34227 -23.15178,-5.15924 -38.42813,-6.73737 -64.88862,-6.70335 -87.46829,0.11244 -163.24306,37.70711 -249.70712,123.88892 -49.71739,49.55509 -87.37709,94.94486 -199.48873,240.435925 C 106.17312,-21.346817 73.385819,21.041137 62.082024,35.513393 50.77823,49.985648 40.13862,64.700102 38.438467,68.21216 c -9.242169,19.091756 -8.548525,44.6407 1.680637,61.9033 1.613165,2.72236 17.00869,23.08703 34.212273,45.25483 17.203597,22.1678 49.648503,64.16994 72.099803,93.33809 97.89195,127.1787 139.838,177.56647 186.59943,224.15285 25.62459,25.52868 43.96317,41.70069 66.30541,58.47185 47.08289,35.34271 95.97074,56.89199 146.24635,64.46393 20.76,3.12664 70.92382,2.1119 91.88074,-1.85862 z"
       style="stroke-width:1.41421354" />
    <path
       transform="translate(0,-28)"
       id="path3890"
       d="M -150.12116,97.588544 V -502.03801 H 449.50539 1049.1319 V 97.588544 697.21509 H 449.50539 -150.12116 Z M 619.24811,616.5378 c 55.44548,-6.8537 105.47576,-28.1911 146.33401,-62.40991 55.70172,-46.65022 89.91084,-111.81656 99.71969,-189.96009 2.3391,-18.63479 1.95305,-59.30261 -0.74418,-78.39345 -7.39715,-52.35655 -29.57002,-102.08496 -63.8517,-143.20396 -4.98878,-5.98378 -17.40653,-18.8708 -27.59499,-28.63782 -10.18846,-9.76703 -17.904,-17.75824 -17.14564,-17.75824 2.62816,0 35.52526,-32.550982 46.07398,-45.589225 35.57411,-43.9696955 56.52115,-92.763528 63.24136,-147.313917 1.98516,-16.114228 1.96761,-56.454448 -0.0315,-72.550858 -4.39462,-35.3831 -14.23928,-69.19854 -28.73624,-98.70599 -28.33035,-57.66424 -71.53662,-100.67359 -128.50768,-127.92199 -39.03661,-18.67062 -76.94815,-27.09176 -122.02819,-27.10564 -81.94598,-0.0252 -150.36535,30.75576 -231.02427,103.93481 C 304.6666,-273.45561 257.43195,-217.61352 137.6841,-62.217589 107.41516,-22.937807 73.449006,20.973524 62.203732,35.363147 50.693744,50.091502 39.84824,65.543652 37.388639,70.718486 c -4.159428,8.751168 -4.369142,10.040874 -4.369142,26.870058 0,16.829186 0.209714,18.118886 4.369142,26.870056 2.481479,5.22087 13.443812,20.80147 25.373127,36.06245 11.552188,14.77853 44.542724,57.41707 73.312284,94.75231 102.38646,132.87037 134.34341,171.91888 183.03385,223.65086 76.04668,80.79704 150.59009,125.75008 227.00826,136.89621 15.93042,2.32357 56.88793,2.72533 73.13195,0.71737 z"
       style="stroke-width:1.41421354;fill:#000d42;fill-opacity:1" />
  </g>
  <g
     id="layer2">
    <g
       id="g144"
       transform="matrix(0,2.0330388,-1.8320516,0,866.81308,-450.96787)">
      <path
         id="path130"
         d="m 512,153.86719 c 0,43.29297 -16.13281,82.9414 -50.77344,124.73437 -30.99609,37.39844 -75.53125,75.35547 -127.11328,119.3086 -17.625,15.01562 -37.59766,32.03906 -58.32031,50.17187 -5.42969,4.75 -12.38672,7.38672 -19.61328,7.42969 H 256 c -7.28906,0 -14.31641,-2.64063 -19.79297,-7.4375 -20.68359,-18.08594 -40.625,-35.08985 -58.21875,-50.08594 l -0.0898,-0.0664 C 126.32422,353.96484 81.769531,316 50.78125,278.60156 16.132812,236.80859 0,197.16016 0,153.86719 0,111.80078 14.425781,72.984375 40.617188,44.574219 67.125,15.824219 103.49219,0 143.03125,0 172.58984,0 199.64844,9.335938 223.48047,27.761719 235.50781,37.066406 246.40234,48.441406 256,61.726562 l 0.17969,-0.238281 C 265.73828,48.304688 276.57422,37.007812 288.52734,27.761719 312.35156,9.335938 339.42188,0 368.96875,0 408.51563,0 444.88281,15.824219 471.38281,44.574219 497.57422,72.984375 512,111.78906 512,153.86719 Z m 0,0"
         style="fill:#ff5e95" />
      <path
         id="path132"
         d="m 512,153.86719 c 0,43.29297 -16.13281,82.9414 -50.77344,124.73437 -30.99609,37.39844 -75.53125,75.35547 -127.11328,119.3086 -17.625,15.01562 -37.59766,32.03906 -58.32031,50.17187 -5.42969,4.75 -12.38672,7.38672 -19.61328,7.42969 V 61.488281 C 265.73828,48.304688 276.57422,37.007812 288.52734,27.761719 312.35156,9.335938 339.42188,0 368.96875,0 408.51563,0 444.88281,15.824219 471.38281,44.574219 497.57422,72.984375 512,111.78906 512,153.86719 Z m 0,0"
         style="fill:#ff3980" />
    </g>
  </g>
</svg>
