<?xml version="1.0" standalone="no"?>
<!DOCTYPE svg PUBLIC "-//W3C//DTD SVG 20010904//EN"
 "http://www.w3.org/TR/2001/REC-SVG-20010904/DTD/svg10.dtd">
<svg version="1.0" xmlns="http://www.w3.org/2000/svg"
 width="700.000000pt" height="700.000000pt" viewBox="0 0 700.000000 700.000000"
 preserveAspectRatio="xMidYMid meet">
<metadata>
Created by potrace 1.11, written by Peter Selinger 2001-2013
</metadata>
<g transform="translate(0.000000,700.000000) scale(0.100000,-0.100000)"
fill="#000000" stroke="none">
<path d="M4299 6995 c-2 -1 -31 -6 -64 -9 -33 -3 -85 -10 -115 -16 -30 -6 -66
-14 -80 -16 -14 -3 -59 -14 -100 -25 -41 -11 -82 -21 -90 -23 -47 -12 -226
-82 -313 -123 -195 -91 -432 -239 -622 -388 -49 -38 -92 -72 -95 -75 -3 -3
-47 -41 -99 -85 -217 -184 -487 -455 -801 -805 -28 -31 -56 -62 -155 -175 -38
-44 -72 -82 -76 -85 -6 -6 -238 -274 -354 -411 -44 -52 -82 -96 -85 -99 -3 -3
-43 -50 -90 -105 -47 -55 -89 -105 -95 -111 -5 -6 -30 -35 -55 -64 -25 -30
-56 -66 -70 -80 -14 -14 -42 -47 -63 -73 -21 -25 -43 -52 -50 -59 -7 -7 -80
-92 -162 -188 -83 -96 -156 -181 -163 -188 -6 -8 -25 -32 -41 -55 -87 -128
-97 -289 -25 -428 19 -39 229 -290 529 -634 29 -33 166 -193 305 -355 139
-162 276 -322 304 -355 47 -55 134 -153 146 -165 5 -5 214 -241 260 -294 143
-164 536 -558 700 -702 474 -415 891 -647 1343 -748 116 -26 141 -30 267 -43
102 -11 412 -7 502 6 40 6 93 13 118 17 25 3 90 16 145 30 676 161 1189 589
1430 1193 41 103 99 323 109 412 4 31 9 67 12 80 10 47 6 356 -5 434 -32 216
-80 375 -165 550 -130 265 -346 524 -598 717 l-66 51 86 69 c95 75 240 214
306 292 22 27 48 57 56 65 39 41 167 247 216 346 82 168 142 369 160 530 3 32
8 68 10 79 5 24 5 292 -1 351 -9 110 -44 279 -80 395 -149 475 -490 877 -948
1115 -196 102 -342 154 -592 211 -105 24 -304 41 -481 42 -111 0 -203 -1 -205
-3z"/>
</g>
</svg>
