<?xml version="1.0" encoding="UTF-8" standalone="no"?>
<svg
   xmlns:dc="http://purl.org/dc/elements/1.1/"
   xmlns:cc="http://creativecommons.org/ns#"
   xmlns:rdf="http://www.w3.org/1999/02/22-rdf-syntax-ns#"
   xmlns:svg="http://www.w3.org/2000/svg"
   xmlns="http://www.w3.org/2000/svg"
   id="svg134"
   version="1.1"
   viewBox="0 -28 512.00001 512">
  <metadata
     id="metadata140">
    <rdf:RDF>
      <cc:Work
         rdf:about="">
        <dc:format>image/svg+xml</dc:format>
        <dc:type
           rdf:resource="http://purl.org/dc/dcmitype/StillImage" />
        <dc:title></dc:title>
      </cc:Work>
    </rdf:RDF>
  </metadata>
  <defs
     id="defs138" />
  <g
     transform="rotate(90,256,227.75586)"
     id="g144">
    <path
       style="fill:#ff5e95"
       d="m 512,153.86719 c 0,43.29297 -16.13281,82.9414 -50.77344,124.73437 -30.99609,37.39844 -75.53125,75.35547 -127.11328,119.3086 -17.625,15.01562 -37.59766,32.03906 -58.32031,50.17187 -5.42969,4.75 -12.38672,7.38672 -19.61328,7.42969 H 256 c -7.28906,0 -14.31641,-2.64063 -19.79297,-7.4375 -20.68359,-18.08594 -40.625,-35.08985 -58.21875,-50.08594 l -0.0898,-0.0664 C 126.32422,353.96484 81.769531,316 50.78125,278.60156 16.132812,236.80859 0,197.16016 0,153.86719 0,111.80078 14.425781,72.984375 40.617188,44.574219 67.125,15.824219 103.49219,0 143.03125,0 172.58984,0 199.64844,9.335938 223.48047,27.761719 235.50781,37.066406 246.40234,48.441406 256,61.726562 l 0.17969,-0.238281 C 265.73828,48.304688 276.57422,37.007812 288.52734,27.761719 312.35156,9.335938 339.42188,0 368.96875,0 408.51563,0 444.88281,15.824219 471.38281,44.574219 497.57422,72.984375 512,111.78906 512,153.86719 Z m 0,0"
       id="path130" />
    <path
       style="fill:#ff3980"
       d="m 512,153.86719 c 0,43.29297 -16.13281,82.9414 -50.77344,124.73437 -30.99609,37.39844 -75.53125,75.35547 -127.11328,119.3086 -17.625,15.01562 -37.59766,32.03906 -58.32031,50.17187 -5.42969,4.75 -12.38672,7.38672 -19.61328,7.42969 V 61.488281 C 265.73828,48.304688 276.57422,37.007812 288.52734,27.761719 312.35156,9.335938 339.42188,0 368.96875,0 408.51563,0 444.88281,15.824219 471.38281,44.574219 497.57422,72.984375 512,111.78906 512,153.86719 Z m 0,0"
       id="path132" />
  </g>
</svg>
